# xmcd CD database file
#
# Track frame offsets:
#	150
#	12355
#	22120
#	33250
#	40385
#	54465
#	60030
#	67705
#	79595
#	91780
#	102585
#	113395
#	121465
#	130390
#	137430
#	146600
#	159890
#	172910
#	195665
#	201515
#	207525
#
# Disc length: 2910 seconds
#
# Revision: 0
# Processed by: cddbd v1.5.1PL0 Copyright (c) Steve Scherf et al.
# Submitted via: CDex 1.51
#
DISCID=150b5c15
DTITLE=Frank Loesser - Frank sings Loesser
DYEAR=1995
DGENRE=Jazz
TTITLE0=I Wish I Were Twins
TTITLE1=Doing The Dishes
TTITLE2=Where The Grass Grows Green
TTITLE3=Once In Love With Amy
TTITLE4=Make A Miracle
TTITLE5=I Come A Runnin´
TTITLE6=Asking For Trouble
TTITLE7=Down The Stairs, Out The Door (Went My Baby)
TTITLE8=In My Arms
TTITLE9=Sing A Tropical Song
TTITLE10=Bloop-Bleep
TTITLE11=Tallahassee
TTITLE12=No Swallerin´ Place
TTITLE13=All Is Forgiven (All Is Forgotten)
TTITLE14=Long, Long Lashes (I Just Don´t Deserve It)
TTITLE15=The Ugly Duckling
TTITLE16=The Inch Worm
TTITLE17=The King´s New Clothes
TTITLE18=Wonderful Kopenhagen
TTITLE19=No Two People
TTITLE20=Baby, It´s Cold Outside
EXTD=YEAR: 1995
EXTT0=
EXTT1=
EXTT2=
EXTT3=
EXTT4=
EXTT5=
EXTT6=
EXTT7=
EXTT8=
EXTT9=
EXTT10=
EXTT11=
EXTT12=
EXTT13=
EXTT14=
EXTT15=
EXTT16=
EXTT17=
EXTT18=
EXTT19=
EXTT20=
PLAYORDER=
